<svg xmlns="http://www.w3.org/2000/svg" width="594" height="594" viewBox="0 0 594 594"><defs><style>.a{fill:#fff;}</style></defs><g transform="translate(0 1280)"><path class="a" d="M623.025-1270.394c.139,5.337.418,23.992.557,41.534l.325,31.927h7.843l-.278-4.084c-.139-2.228-.371-17.5-.51-33.969s-.371-33.32-.51-37.5l-.325-7.518H622.7Z" transform="translate(-333.728)"/><path class="a" d="M880.725-1168.68c-10.117,18.284-19.166,34.573-20.048,36.15l-1.578,2.877,3.2,1.856,3.2,1.856.882-1.485c.835-1.346,39.167-70.259,39.445-70.862.093-.232-5.986-3.713-6.45-3.713C899.288-1202,890.888-1187.011,880.725-1168.68Z" transform="translate(-460.424 -41.803)"/><path class="a" d="M308.439-1190.985c-1.578.974-2.738,2.042-2.645,2.367.232,1.021,42.462,70.027,42.833,70.027.557,0,5.986-3.341,5.986-3.666,0-.51-42.694-70.352-43.065-70.445A15.2,15.2,0,0,0,308.439-1190.985Z" transform="translate(-163.884 -46.785)"/><path class="a" d="M677.665-1187.869c-.418,1.763-4.409,39.538-4.269,39.724a31.512,31.512,0,0,0,7.1.835c.139-.139,1.16-8.678,2.274-18.934,1.114-10.3,2.088-19.351,2.228-20.187.232-1.671.464-1.531-4.919-2.227C678.037-1188.936,677.851-1188.844,677.665-1187.869Z" transform="translate(-360.896 -48.88)"/><path class="a" d="M569.763-1184.581c-1.253.139-1.763.418-1.763.975,0,1.253,5.151,39.26,5.337,39.492a37.023,37.023,0,0,0,7.007-1.021c.139-.139-.928-8.956-2.367-19.676-1.392-10.673-2.552-19.583-2.552-19.769C575.425-1184.906,572.965-1184.906,569.763-1184.581Z" transform="translate(-304.413 -51.008)"/><path class="a" d="M729.9-1178.7c-.65,2-8.539,38.332-8.4,38.471a51.959,51.959,0,0,0,7.007,1.81c.325-.325,8.585-38.517,8.446-38.935-.093-.278-1.671-.882-3.527-1.3C730.408-1179.392,730.083-1179.392,729.9-1178.7Z" transform="translate(-386.677 -54.016)"/><path class="a" d="M513.692-1176.123a6.5,6.5,0,0,0-2.692,1.067c0,.7,8.817,38.7,9.049,38.888.232.232,6.033-.882,6.682-1.3.278-.139-1.346-8.121-4.037-19.862C517.636-1179.371,518.564-1177.422,513.692-1176.123Z" transform="translate(-273.864 -55.29)"/><path class="a" d="M781.716-1166.383c-.7,1.949-11.787,37.032-11.926,37.775-.093.7.464,1.067,3.295,1.949a28.347,28.347,0,0,0,3.527.974c.278-.371,12.391-38.935,12.251-39.074-.093-.046-1.439-.464-2.97-.928s-3.063-.974-3.341-1.067A.651.651,0,0,0,781.716-1166.383Z" transform="translate(-412.554 -60.668)"/><path class="a" d="M459.156-1160.693a10.021,10.021,0,0,0-3.156,1.531c0,.371,13.458,37.264,13.643,37.5a43.652,43.652,0,0,0,6.682-2.459c.278-.278-13.411-37.821-13.783-37.775C462.4-1161.9,460.873-1161.343,459.156-1160.693Z" transform="translate(-244.387 -63.294)"/><path class="a" d="M823.035-1128.577l-7.935,18.47,3.295,1.531c1.81.835,3.434,1.346,3.62,1.16.232-.278,14.664-33.691,15.639-36.2.139-.371-.789-1.067-2.877-2a35.809,35.809,0,0,0-3.434-1.392C831.157-1147,827.4-1138.693,823.035-1128.577Z" transform="translate(-436.843 -71.28)"/><path class="a" d="M406.355-1139.462a34.082,34.082,0,0,0-3.156,1.531c-.093.093,16.985,36.011,17.263,36.29a20.163,20.163,0,0,0,3.434-1.485l3.341-1.578-2.506-5.244c-7.7-16.335-14.85-31-15.082-30.953A34.113,34.113,0,0,0,406.355-1139.462Z" transform="translate(-216.09 -74.549)"/><path class="a" d="M911.848-1075.665,900.2-1059.33l2.738,2a15.277,15.277,0,0,0,3.156,2c.186,0,5.615-7.286,12.019-16.242l11.648-16.2-2.97-2.135a36.519,36.519,0,0,0-3.109-2.088C923.589-1091.954,918.3-1084.621,911.848-1075.665Z" transform="translate(-482.451 -100.756)"/><path class="a" d="M308.106-1080.992c-1.392,1.021-2.506,2.135-2.506,2.506.046.6,23.714,31.788,24.131,31.788a45.948,45.948,0,0,0,5.754-4.409c0-.325-24.178-31.556-24.5-31.7A10.494,10.494,0,0,0,308.106-1080.992Z" transform="translate(-163.783 -105.685)"/><path class="a" d="M952.087-1042.057,939-1027.068l2.645,2.46a14.144,14.144,0,0,0,2.924,2.32c.186-.093,6.218-6.868,13.411-15.128l13.04-14.943-1.9-1.717c-2.274-2.042-3.341-2.877-3.713-2.924C965.266-1057,959.28-1050.271,952.087-1042.057Z" transform="translate(-503.245 -119.514)"/><path class="a" d="M263.26-1044.494l-2.46,2.459,14.107,14.664,14.061,14.664,2.692-2.645,2.645-2.6-3.388-3.527c-1.856-1.9-8.168-8.446-13.968-14.525-5.847-6.033-10.766-11-10.905-11A15.812,15.812,0,0,0,263.26-1044.494Z" transform="translate(-139.773 -124.873)"/><path class="a" d="M988.955-1004.489c-8.028,7.379-14.664,13.69-14.757,14.015-.046.325.974,1.671,2.32,3.016l2.46,2.367L993.6-998.549c8.028-7.379,14.618-13.6,14.618-13.783a16.441,16.441,0,0,0-2.32-2.97l-2.32-2.6Z" transform="translate(-522.109 -140.469)"/><path class="a" d="M224.551-1004.169c-1.392,1.624-2.227,2.97-2,3.2,1.253,1.207,30.164,25.523,30.35,25.523.325,0,4.78-5.569,4.594-5.754-.232-.186-16.706-14.107-24.642-20.836L227.011-1007Z" transform="translate(-119.255 -146.311)"/><path class="a" d="M1027.685-967.125c-4.965,3.713-12.158,9-15.917,11.834l-6.868,5.058,1.439,1.949c.789,1.067,1.763,2.413,2.227,2.97l.789,1.067,16.01-11.834c8.817-6.5,16.057-12.019,16.149-12.3.232-.6-3.62-5.569-4.269-5.522C1036.967-973.9,1032.651-970.838,1027.685-967.125Z" transform="translate(-538.564 -164.05)"/><path class="a" d="M1069.069-952.251c-19.259,11.323-35.176,20.79-35.408,21.022-.325.325,1.763,4.594,3.2,6.45.139.232,69.795-40.652,70.677-41.487.511-.464.325-1.067-1.16-3.62a16.12,16.12,0,0,0-2.042-3.016C1104.2-972.9,1088.328-963.62,1069.069-952.251Z" transform="translate(-553.96 -164.585)"/><path class="a" d="M189.275-958.431c-1.114,1.671-1.856,3.2-1.624,3.388.51.51,33.088,21.811,33.273,21.811a38.519,38.519,0,0,0,3.9-6.218c-.093-.093-29.746-19.537-32.624-21.44C191.363-961.447,191.131-961.262,189.275-958.431Z" transform="translate(-100.546 -170.888)"/><path class="a" d="M79.988-956.831c-.975,1.671-1.578,3.248-1.346,3.434.51.51,71.187,40.373,71.558,40.373a15.963,15.963,0,0,0,2-3.156l1.717-3.156-35.733-20.187C98.5-950.613,82.309-959.709,82.123-959.8A10.641,10.641,0,0,0,79.988-956.831Z" transform="translate(-42.121 -171.606)"/><path class="a" d="M1076.062-869.058c-9.049,4.316-17.217,8.214-18.191,8.678l-1.671.835,1.671,3.295,1.717,3.295,18.052-8.492c9.931-4.687,18.191-8.632,18.284-8.771.325-.279-2.738-6.729-3.109-6.683C1092.675-876.9,1085.111-873.327,1076.062-869.058Z" transform="translate(-566.057 -216.036)"/><path class="a" d="M135.143-861.376c-.325.882-.975,2.367-1.346,3.341a8.971,8.971,0,0,0-.6,1.763c.093.046,6.822,2.877,14.989,6.265s16.428,6.868,18.377,7.7l3.573,1.485,1.439-3.295c.789-1.81,1.3-3.434,1.114-3.62C172.222-848.15,136.86-863,136.3-863,136.025-863,135.514-862.258,135.143-861.376Z" transform="translate(-71.381 -223.486)"/><path class="a" d="M1093.934-816.776c-9.977,3.388-18.33,6.265-18.47,6.45-.278.232,1.392,6.219,1.9,6.822.325.371,38.239-12.623,38.239-13.133a20.192,20.192,0,0,0-.974-3.434c-.7-2.042-1.207-2.877-1.717-2.831C1112.45-822.9,1103.958-820.118,1093.934-816.776Z" transform="translate(-576.365 -244.975)"/><path class="a" d="M115.024-806.364a23.161,23.161,0,0,0-.928,3.713c.464.371,37.728,11.37,38.146,11.23.464-.139,2.784-6.822,2.367-6.822-.186,0-37.311-11.184-38.053-11.462C116.277-809.8,115.627-808.359,115.024-806.364Z" transform="translate(-61.146 -252.046)"/><path class="a" d="M1107.964-763.727c-10.07,2.274-18.562,4.223-18.841,4.316-.371.139-.325,1.114.232,3.48a20.5,20.5,0,0,0,1.021,3.48c.279.325,38.517-8.028,39.028-8.492.186-.139,0-1.81-.418-3.666-.65-2.877-.882-3.341-1.717-3.295C1126.712-767.9,1118.034-766,1107.964-763.727Z" transform="translate(-583.573 -274.45)"/><path class="a" d="M101.922-753.78A44.847,44.847,0,0,0,100.576-747c.046,0,3.016.6,6.543,1.392,19.027,4.084,32.763,6.961,32.856,6.868.139-.232,1.578-7.1,1.485-7.147-.093-.093-6.636-1.485-32.252-6.915C104.242-753.873,102.015-754.151,101.922-753.78Z" transform="translate(-53.891 -281.937)"/><path class="a" d="M1117.209-709.584c-10.3,1.253-18.795,2.32-18.887,2.413-.278.232.371,6.218.7,6.775.232.325,6.543-.232,20-1.856,10.813-1.253,19.723-2.367,19.769-2.413s-.139-1.717-.417-3.713c-.371-3.2-.511-3.573-1.439-3.527C1136.421-711.858,1127.511-710.837,1117.209-709.584Z" transform="translate(-588.596 -304.462)"/><path class="a" d="M93.874-696.74a33.866,33.866,0,0,0-.418,3.666c-.232,2.32-.139,3.156.278,3.295.325.093,5.2.6,10.813,1.16s14.34,1.439,19.4,2c5.058.51,9.235.882,9.328.789a25.134,25.134,0,0,0,.51-3.713l.278-3.527-5.244-.557C103.341-696.369,94.013-697.2,93.874-696.74Z" transform="translate(-50.02 -312.526)"/><path class="a" d="M1134.716-655.49c-13.782.139-26.776.325-28.865.371l-3.852.046v7.471l24.038-.278c13.179-.139,31.788-.371,41.3-.51l17.263-.278V-656l-12.39.093C1165.344-655.861,1148.5-655.675,1134.716-655.49Z" transform="translate(-590.603 -334.425)"/><path class="a" d="M40.466-640.58,0-640.441v7.425H82.6v-3.945c0-3.48-.093-3.945-.789-3.852C81.35-640.719,62.741-640.626,40.466-640.58Z" transform="translate(0 -342.559)"/><path class="a" d="M1099.964-605.018c-.046.139-.186,1.81-.278,3.713l-.186,3.48,18.563,1.717c10.209.928,19.212,1.717,20.047,1.717l1.439.046.325-3.48a20.879,20.879,0,0,0,.186-3.666C1139.734-601.816,1100.15-605.3,1099.964-605.018Z" transform="translate(-589.263 -361.739)"/><path class="a" d="M114.223-590.724,94.5-588.4l.186,1.856c.278,3.759.743,5.569,1.439,5.476.371-.046,9.328-1.067,19.862-2.32l19.166-2.227-.325-3.016a21.19,21.19,0,0,0-.6-3.712C133.992-592.952,131.439-592.766,114.223-590.724Z" transform="translate(-50.646 -368.376)"/><path class="a" d="M1092.232-553.52c-.7,3.434-.7,3.48.278,3.713,1.531.371,38.053,7.657,38.332,7.657.325,0,1.624-6.914,1.346-7.147-.232-.232-37.589-7.7-38.517-7.7C1093.114-557,1092.743-556.118,1092.232-553.52Z" transform="translate(-585.105 -387.483)"/><path class="a" d="M123.6-540.284c-10.581,2.367-19.305,4.409-19.444,4.548a12.6,12.6,0,0,0,.557,3.759c.7,2.831.975,3.434,1.578,3.248.464-.139,8.817-2.042,18.655-4.223s18.238-4.084,18.7-4.223c.743-.232.789-.557.557-2.181a36.579,36.579,0,0,0-.882-3.573l-.51-1.671Z" transform="translate(-55.798 -394.128)"/><path class="a" d="M1079.975-508.015a24.477,24.477,0,0,0-.975,3.666c0,.51,1.671,1.253,6.172,2.645,25.152,7.843,32.02,9.931,32.252,9.7.139-.186.7-1.763,1.3-3.527l1.021-3.248-6.59-2.042c-3.573-1.16-12.066-3.805-18.841-5.894s-12.53-3.9-12.808-3.991C1081.181-510.8,1080.531-509.685,1079.975-508.015Z" transform="translate(-578.277 -412.29)"/><path class="a" d="M137.175-492.589c-10.349,3.48-18.841,6.358-18.887,6.4a21.651,21.651,0,0,0,1.067,3.573l1.16,3.527L139.4-485.35c10.4-3.48,18.98-6.358,19.073-6.45.278-.278-1.9-7.147-2.227-7.1C156.108-498.9,147.523-496.023,137.175-492.589Z" transform="translate(-63.389 -418.621)"/><path class="a" d="M1062.592-461.366l-1.392,3.48,3.295,1.392c1.856.743,8.864,3.666,15.639,6.451,12.112,5.012,18.191,7.518,18.33,7.518.418,0,2.552-6.636,2.274-6.915-.325-.278-32.345-13.736-36.1-15.175C1064.217-464.754,1063.567-463.733,1062.592-461.366Z" transform="translate(-568.737 -436.989)"/><path class="a" d="M161.043-445.752c-7.889,3.712-16.1,7.518-18.238,8.539L139-435.4l1.485,3.156c.835,1.717,1.578,3.248,1.624,3.341.139.186,35.5-16.149,36.058-16.706.371-.325-1.578-5.43-2.506-6.5C175.522-452.3,168.978-449.418,161.043-445.752Z" transform="translate(-74.495 -443.693)"/><path class="a" d="M1040.763-417.5,1039-414.256l4.084,2.274c16.149,9.188,67.985,38.146,68.078,38.053,1.114-1.439,3.434-6.172,3.156-6.45-.464-.418-70.166-39.724-71.141-40.049C1042.666-420.613,1041.97-419.732,1040.763-417.5Z" transform="translate(-556.839 -460.664)"/><path class="a" d="M121.773-390.018c-19.119,11.462-34.99,20.883-35.222,20.976-.464.139,2.97,6.358,3.573,6.358.325,0,69.841-41.116,70.491-41.719.325-.325-3.2-6.59-3.713-6.5C156.717-410.855,140.938-401.481,121.773-390.018Z" transform="translate(-46.363 -465.782)"/><path class="a" d="M1013.9-376.078a22.959,22.959,0,0,0-1.9,3.016c0,.093,5.569,4.037,12.437,8.678,6.822,4.641,14.293,9.792,16.613,11.416l4.269,2.924,1.949-3.063c1.717-2.552,1.9-3.109,1.346-3.62-.974-.928-31.278-21.579-32.113-21.9C1015.991-378.816,1015.248-378.027,1013.9-376.078Z" transform="translate(-542.369 -483.064)"/><path class="a" d="M212.984-358.485c-8.307,6.265-15.453,11.648-15.964,11.973-.835.6-.743.789,1.16,3.434a12.25,12.25,0,0,0,2.46,2.831c.325,0,30.442-22.275,32.02-23.714.371-.325-3.666-6.033-4.269-5.94C228.205-369.9,221.291-364.75,212.984-358.485Z" transform="translate(-105.322 -487.755)"/><path class="a" d="M984.52-338.293l-2.32,2.645,15.082,13.411,15.129,13.411,2.459-2.645a25.668,25.668,0,0,0,2.459-2.924c-.046-.371-29.375-26.127-29.932-26.312C987.073-340.8,985.82-339.732,984.52-338.293Z" transform="translate(-526.398 -503.4)"/><path class="a" d="M247.491-318.542c-7.8,7.379-14.2,13.69-14.293,14.015-.046.325.975,1.671,2.32,3.016l2.46,2.367,13.458-12.715c7.425-7.007,13.968-13.272,14.618-13.875l1.114-1.16-2.506-2.552A22.891,22.891,0,0,0,261.877-332C261.738-332,255.288-325.921,247.491-318.542Z" transform="translate(-124.979 -508.069)"/><path class="a" d="M949.552-302.486,947-300.027l11.184,12.066c6.172,6.636,12.344,13.272,13.736,14.757l2.552,2.692,2.692-2.552,2.645-2.552L966.4-290.142c-7.379-7.982-13.643-14.618-13.875-14.664C952.29-304.9,950.945-303.879,949.552-302.486Z" transform="translate(-507.533 -522.639)"/><path class="a" d="M285.319-282.957,272-268.014l2.6,2.413a17.522,17.522,0,0,0,2.877,2.46c.325,0,26.22-29,26.452-29.654a11.06,11.06,0,0,0-2.6-2.738l-2.692-2.367Z" transform="translate(-145.775 -526.344)"/><path class="a" d="M913.692-272.846a12.227,12.227,0,0,0-2.692,2.32c0,.371,15.082,20.976,21.718,29.7l2,2.645,1.949-1.392c1.067-.789,2.413-1.763,3.016-2.228l1.021-.789L928.866-258.6c-6.5-8.817-12.019-16.057-12.2-16.1A12.826,12.826,0,0,0,913.692-272.846Z" transform="translate(-488.239 -538.776)"/><path class="a" d="M328.3-251.99c-6.265,8.771-11.462,16.2-11.509,16.474-.093.278,1.16,1.439,2.738,2.6l2.877,2.088,1.624-2.227c11.323-15.825,21.533-30.489,21.393-30.767a33.567,33.567,0,0,0-2.97-2.228L339.719-268Z" transform="translate(-169.779 -542.369)"/><path class="a" d="M872.177-245.137c-1.81,1.021-2.831,1.9-2.692,2.274.325.882,41.116,69.331,41.719,70.027.418.464,1.207.139,3.666-1.3,3.016-1.81,3.109-1.949,2.506-2.877-.325-.557-9.885-16.521-21.208-35.5-11.277-18.934-20.651-34.433-20.836-34.387A35.151,35.151,0,0,0,872.177-245.137Z" transform="translate(-465.983 -553.677)"/><path class="a" d="M360.332-239C357.64-234.364,322-168.931,322-168.653a17.048,17.048,0,0,0,3.156,1.949l3.2,1.671L348.034-201c10.813-19.769,19.723-36.1,19.769-36.243.093-.139-1.346-1.067-3.109-2l-3.2-1.763Z" transform="translate(-172.572 -556.839)"/><path class="a" d="M829.587-222.515c-1.81.835-3.295,1.531-3.388,1.578s16.428,36.1,16.845,36.754a50.1,50.1,0,0,0,6.636-2.924c.186-.139-13.922-31.046-16.1-35.362L832.836-224Z" transform="translate(-442.791 -565.95)"/><path class="a" d="M424.709-199.623c-4.269,10.07-7.7,18.377-7.611,18.47a42.932,42.932,0,0,0,6.729,2.506c.278-.325,15.5-36.2,15.5-36.568,0-.325-5.754-2.784-6.45-2.784C432.69-218,429.024-209.74,424.709-199.623Z" transform="translate(-223.537 -569.166)"/><path class="a" d="M784.321-203.972c-1.392.464-2.784.975-3.109,1.114-.371.139.6,3.573,3.156,11,2.088,5.94,5.012,14.479,6.543,18.934s2.877,8.214,2.97,8.307a17.483,17.483,0,0,0,3.573-1.114l3.48-1.253-2.692-7.7c-1.485-4.269-4.455-12.808-6.59-18.98-2.135-6.218-4.037-11.277-4.316-11.23A20.637,20.637,0,0,0,784.321-203.972Z" transform="translate(-418.64 -576.186)"/><path class="a" d="M481.154-196.963c-9.513,31.278-10.395,34.248-9.885,34.526a30.365,30.365,0,0,0,6.543,1.763c.093-.139,2.738-8.539,5.8-18.655,3.109-10.163,5.708-18.748,5.847-19.119.186-.464-.65-.882-2.97-1.578a29.758,29.758,0,0,0-3.666-.975C482.593-201,481.8-199.19,481.154-196.963Z" transform="translate(-252.511 -578.277)"/><path class="a" d="M737.024-190.1c-1.81.418-2.877.882-2.738,1.253.093.278,2.135,8.864,4.455,19.073,2.367,10.209,4.362,18.795,4.455,19.119.139.371,1.067.278,3.48-.325a20.489,20.489,0,0,0,3.573-1.114c.186-.186-7.425-34.2-8.492-38.007C741.479-191.032,740.968-191.032,737.024-190.1Z" transform="translate(-393.525 -583.743)"/><path class="a" d="M532.622-188.485c0,.51-6.729,36.429-7.193,38.424-.232.882.046,1.021,3.388,1.624,3.48.65,3.573.65,3.9-.278.325-.882,7.332-37.775,7.332-38.471a7.856,7.856,0,0,0-2.645-.789c-1.485-.278-3.156-.65-3.713-.789C533.039-188.9,532.622-188.763,532.622-188.485Z" transform="translate(-281.564 -584.806)"/><path class="a" d="M689-181.511a9.478,9.478,0,0,0-2.413.557c-.278.278,4.548,39.26,4.873,39.538a15.034,15.034,0,0,0,3.805-.278l3.573-.418-.232-1.485c-.139-.789-1.16-9.049-2.32-18.377s-2.181-17.634-2.32-18.47C693.687-182.068,693.455-182.114,689-181.511Z" transform="translate(-367.961 -588.531)"/><path class="a" d="M585.865-180.122c0,.464-.835,9.467-1.856,20.048s-1.81,19.3-1.717,19.351c.047.046,1.671.186,3.666.371l3.527.325.278-1.763c.51-3.341,3.666-38.239,3.48-38.378a26.354,26.354,0,0,0-3.759-.51C586.143-180.958,585.865-180.911,585.865-180.122Z" transform="translate(-312.068 -589.084)"/><path class="a" d="M638-167.419c0,5.847.139,24.41.325,41.3L638.6-95.4h7.286V-107.37c0-6.59-.139-25.2-.325-41.3L645.286-178H638Z" transform="translate(-341.928 -590.603)"/></g></svg>