<svg xmlns="http://www.w3.org/2000/svg" width="57.971" height="57.967" viewBox="0 0 57.971 57.967"><defs><style>.a{fill:#fff;}</style></defs><g transform="translate(0 -0.016)"><g transform="translate(0 0.016)"><path class="a" d="M35.37,29,57.045,7.324a3.176,3.176,0,0,0,0-4.484l-1.9-1.9a3.179,3.179,0,0,0-4.485,0L28.986,22.616,7.311.942a3.177,3.177,0,0,0-4.483,0l-1.9,1.9a3.173,3.173,0,0,0,0,4.484L22.6,29,.928,50.674a3.18,3.18,0,0,0,0,4.485l1.9,1.9a3.177,3.177,0,0,0,4.483,0L28.986,35.383,50.661,57.058a3.146,3.146,0,0,0,2.242.926h0a3.146,3.146,0,0,0,2.242-.926l1.9-1.9a3.179,3.179,0,0,0,0-4.484Z" transform="translate(0 -0.016)"/></g></g></svg>