<svg xmlns="http://www.w3.org/2000/svg" width="70.149" height="70.149" viewBox="0 0 70.149 70.149"><defs><style>.a{fill:#1a3365;}.b{fill:#1e81ce;}</style></defs><g transform="translate(-0.008 0)"><path class="a" d="M71.352,24.975l-8.6-3.825-3.828-8.6-9.358.977L41.954,8l-7.618,5.521-9.353-.977-3.826,8.6-8.6,3.829.978,9.358L8.012,41.946l5.521,7.618-.978,9.353,8.6,3.825,3.829,8.6,9.358-.977,7.613,5.521,7.618-5.521,9.353.977,3.825-8.6,8.6-3.828-.978-9.358L75.9,41.946l-5.522-7.618ZM35.166,55.523,25.56,45.917l3.2-3.19,6.4,6.392,19.2-19.2,3.2,3.2Zm0,0" transform="translate(-6.872 -6.872)"/><g transform="translate(0.008 0)"><path class="b" d="M69.94,34.41l-5.268-7.267.934-8.925a1.132,1.132,0,0,0-.666-1.152l-8.2-3.649-3.649-8.2A1.138,1.138,0,0,0,51.94,4.55l-8.927.933L35.746.216a1.131,1.131,0,0,0-1.328,0L27.15,5.483,18.224,4.55a1.147,1.147,0,0,0-1.152.665l-3.649,8.2-8.2,3.65a1.131,1.131,0,0,0-.665,1.151l.933,8.926L.223,34.41a1.131,1.131,0,0,0,0,1.328l5.268,7.267-.933,8.927a1.131,1.131,0,0,0,.665,1.152l8.2,3.649,3.649,8.2a1.144,1.144,0,0,0,1.152.666l8.926-.934,7.267,5.268a1.131,1.131,0,0,0,1.328,0l7.267-5.268,8.927.934a1.138,1.138,0,0,0,1.152-.665l3.649-8.2,8.2-3.65a1.132,1.132,0,0,0,.666-1.151l-.934-8.927L69.94,35.74a1.131,1.131,0,0,0,0-1.329Zm-7.354,7.618a1.129,1.129,0,0,0-.209.782l.892,8.54-7.846,3.493a1.122,1.122,0,0,0-.575.573l-3.49,7.846-8.542-.893a1.129,1.129,0,0,0-.781.21L35.082,67.62,28.128,62.58a1.119,1.119,0,0,0-.663-.216.737.737,0,0,0-.113.006l-8.542.893-3.49-7.846a1.131,1.131,0,0,0-.575-.575L6.894,51.349l.892-8.54a1.134,1.134,0,0,0-.209-.782L2.537,35.074l5.039-6.954a1.134,1.134,0,0,0,.209-.782L6.894,18.8l7.846-3.493a1.121,1.121,0,0,0,.575-.573l3.49-7.846,8.542.893a1.142,1.142,0,0,0,.781-.21l6.954-5.039,6.954,5.039a1.137,1.137,0,0,0,.781.21l8.542-.893,3.49,7.846a1.131,1.131,0,0,0,.575.575L63.27,18.8l-.892,8.54a1.129,1.129,0,0,0,.209.782l5.039,6.954Zm0,0" transform="translate(-0.008 0)"/><path class="b" d="M154.8,155.3a1.131,1.131,0,0,0-1.6,0l-18.4,18.4-5.6-5.594a1.131,1.131,0,0,0-1.6,0l-3.207,3.188a1.131,1.131,0,0,0,0,1.6L134,182.5a1.132,1.132,0,0,0,1.6,0L158,160.1a1.132,1.132,0,0,0,0-1.6Zm-20,24.8-8-8,1.6-1.6L134,176.094a1.132,1.132,0,0,0,1.6,0L154,157.7l1.6,1.6Zm0,0" transform="translate(-106.514 -133.049)"/></g></g></svg>