<svg xmlns="http://www.w3.org/2000/svg" width="439.635" height="486.405" viewBox="0 0 439.635 486.405">
  <g id="Group_593" data-name="Group 593" transform="translate(-1288.442 -987)">
    <ellipse id="Ellipse_330" data-name="Ellipse 330" cx="101.706" cy="101.706" rx="101.706" ry="101.706" transform="translate(1288.442 1269.993)" fill="#ffa646"/>
    <path id="Path_1939" data-name="Path 1939" d="M330.331,542.778a214.895,214.895,0,1,1,151.953-62.941,214.895,214.895,0,0,1-151.953,62.941Zm0-428.148c-117.589,0-213.254,95.665-213.254,213.254s95.665,213.254,213.254,213.254,213.253-95.666,213.253-213.255S447.918,114.63,330.331,114.63Z" transform="translate(1182.849 874.033)" fill="#4c2e73"/>
    <path id="Path_1940" data-name="Path 1940" d="M377.966,315.074l-.024.012L272.027,374.063l-115.979-57.99-2-1,6.019-120.385L264.8,120.05l1.156.723,108.395,67.9Z" transform="translate(1247.171 954.86)" fill="#4c2e73"/>
    <path id="Path_1941" data-name="Path 1941" d="M378.673,360.463,272.758,419.44,156.779,361.45l102.737-72.026Z" transform="translate(1246.439 909.483)" opacity="0.3"/>
    <path id="Path_1948" data-name="Path 1948" d="M416.294,315.338,297.112,244.312l7.175-123.275,108.395,67.9Z" transform="translate(1208.844 954.596)" opacity="0.1"/>
    <path id="Path_1942" data-name="Path 1942" d="M159.95,245.085l-.589-.833,105.9-74.752,111.873,70.141-.542.865L265.3,170.725Z" transform="translate(1245.748 941.612)" fill="#f2f2f2"/>
    <path id="Path_1943" data-name="Path 1943" d="M157.151,302.123l-.572-.843,105.367-71.536.276.157L376.488,294.66l-.5.887-113.99-64.6Z" transform="translate(1246.493 925.473)" fill="#f2f2f2"/>
    <path id="Path_1944" data-name="Path 1944" d="M212.079,345.406l-.537-.867,106.192-65.8V152.594h1.02V279.306Z" transform="translate(1231.769 946.142)" fill="#f2f2f2"/>
    <path id="Path_1946" data-name="Path 1946" d="M269.011,374.893l-.542-.864L370.72,309.9V184.879h1.02V310.46Z" transform="translate(1216.517 937.492)" fill="#f2f2f2"/>
    <path id="Path_1947" data-name="Path 1947" d="M364.094,346.406,245.176,280.333l.017-.318,6.26-123.734,1.018.052L246.227,279.75,364.59,345.514Z" transform="translate(1222.758 945.153)" fill="#f2f2f2"/>
    <path id="Path_1945" data-name="Path 1945" d="M313.478,376.483,195.9,314.865l.018-.327,6.931-123.8,1.018.057-6.912,123.468,117,61.313Z" transform="translate(1235.96 935.921)" fill="#f2f2f2"/>
    <g id="Group_533" data-name="Group 533" transform="translate(1015 -192)">
      <circle id="Ellipse_207" data-name="Ellipse 207" cx="214.905" cy="214.905" r="214.905" transform="translate(283.26 1179)" fill="none"/>
      <ellipse id="Ellipse_203" data-name="Ellipse 203" cx="41.01" cy="41.01" rx="41.01" ry="41.01" transform="translate(589.222 1184.764)" fill="#4c2e73"/>
    </g>
  </g>
</svg>
