<svg xmlns="http://www.w3.org/2000/svg" width="47.931" height="47.931" viewBox="0 0 47.931 47.931"><defs><style>.a{fill:#c0cfee;}</style></defs><path class="a" d="M40.91,0H7.021A7.029,7.029,0,0,0,0,7.021V40.91a7.029,7.029,0,0,0,7.021,7.021H40.91a7.029,7.029,0,0,0,7.021-7.021V7.021A7.029,7.029,0,0,0,40.91,0ZM24.059,36.51A12.638,12.638,0,1,1,36.7,23.872,12.652,12.652,0,0,1,24.059,36.51ZM38.1,14.042A4.213,4.213,0,1,1,42.314,9.83,4.218,4.218,0,0,1,38.1,14.042Zm0,0"/><path class="a" d="M393.4,90a1.4,1.4,0,1,0,1.4,1.4A1.405,1.405,0,0,0,393.4,90Zm0,0" transform="translate(-355.303 -81.575)"/><path class="a" d="M161.83,150a9.83,9.83,0,1,0,9.83,9.83A9.841,9.841,0,0,0,161.83,150Zm0,0" transform="translate(-137.771 -135.958)"/></svg>