<svg xmlns="http://www.w3.org/2000/svg" width="99.663" height="100.199" viewBox="0 0 99.663 100.199">
  <g id="Layer_1" transform="translate(-309.093 -272.583)">
    <g id="Group_1" data-name="Group 1" transform="translate(179 14)">
      <path id="Path_1" data-name="Path 1" d="M156.4,317.793V340.65c0,5.052.856,5.934,5.774,5.934q18.193,0,36.388,0c4.009,0,5.141-1.129,5.146-5.15.01-8.771.052-17.541-.038-26.311-.019-1.874.381-2.585,2.427-2.549,7.182.126,14.369.106,21.552.011,1.908-.025,2.266.472,2.046,2.383-2.767,24.038-23.5,42.961-48.1,43.787-24.3.817-46.247-16.732-50.629-40.479a50.093,50.093,0,0,1,40.077-58.823c26.914-5.12,52.912,12.886,58.258,40.247.511,2.612-.009,3.32-2.719,3.244-6.9-.192-13.808-.122-20.71-.023-1.726.025-2.234-.45-2.2-2.181.106-5.409.06-10.823.033-16.234-.018-3.5-1.248-4.75-4.688-4.755q-18.894-.027-37.787,0c-3.638,0-4.792,1.192-4.826,4.916-.028,3.079.01,6.158-.011,9.237,0,.611.234,1.715-.492,1.688-3.386-.123-4.318,3.335-6.82,4.463-.858.387-1.7,1.03-.35,2.008,1.137.826.1,1.7-.174,2.449-2.4,6.687-4.9,13.337-5.548,20.5a17.109,17.109,0,0,0,.368,6.384,4.982,4.982,0,0,0,5.419,3.892c2.632-.177,3.7-1.748,4.292-4.229.7-2.957.129-5.972.94-8.951A8.087,8.087,0,0,1,156.4,317.793Z" fill="#4c2e73" fill-rule="evenodd"/>
      <path id="Path_2" data-name="Path 2" d="M179.866,285.557c4.283,0,8.566-.021,12.85.006,3.4.02,4.423,1.086,4.437,4.551.015,3.725-.009,7.449.005,11.174.01,2.55-1.335,3.8-3.784,3.81q-13.269.053-26.538.007c-2.442-.006-3.871-1.208-3.9-3.731-.04-4-.07-8.009.009-12.011.047-2.374.918-3.951,3.789-3.846C171.108,285.676,175.489,285.558,179.866,285.557Z" fill="#4c2e73" fill-rule="evenodd"/>
      <path id="Path_3" data-name="Path 3" d="M156.417,300.924c0,4.042-.058,7.647.032,11.249a2.791,2.791,0,0,1-1.332,2.514,8.987,8.987,0,0,0-3.48,8.564,13.463,13.463,0,0,1-1.02,7.558c-.923,1.86-2.715,2.371-3.927.826a6.468,6.468,0,0,1-1.624-4.852,90.7,90.7,0,0,1,6.375-21.763c.206-.483.263-1.362.875-1.287C154.343,303.982,154.833,302.109,156.417,300.924Z" fill="#4c2e73" fill-rule="evenodd"/>
    </g>
  </g>
</svg>
