<svg xmlns="http://www.w3.org/2000/svg" width="45.823" height="45.063" viewBox="0 0 45.823 45.063"><defs><style>.a{fill:rgba(0,0,0,0.3);}</style></defs><g transform="translate(0 -5.246)"><g transform="translate(0 5.246)"><path class="a" d="M92.735,36.232c1.887,2.661,3.771,5.041,5.02,6.573.182.223.352.43.517.629H94.5a.764.764,0,0,0,0,1.527h12.219a.764.764,0,0,0,0-1.527h-3.768c.165-.2.335-.406.518-.629,1.248-1.527,3.131-3.912,5.019-6.573a67.1,67.1,0,0,0,5.045-8.131c1.56-3.063,2.351-5.6,2.351-7.557a15.264,15.264,0,0,0-4.473-10.815.764.764,0,1,0-1.081,1.079,13.742,13.742,0,0,1,4.026,9.736c0,1.709-.735,4.019-2.184,6.864a65.587,65.587,0,0,1-4.931,7.943c-1.862,2.626-3.723,4.979-4.956,6.492-.41.5-.779.947-1.094,1.323a.774.774,0,0,1-1.164,0c-.315-.376-.683-.82-1.094-1.323-1.233-1.511-3.095-3.864-4.956-6.492a65.586,65.586,0,0,1-4.931-7.943c-1.451-2.845-2.184-5.154-2.184-6.864a13.751,13.751,0,0,1,19.1-12.686.764.764,0,0,0,.6-1.407A15.28,15.28,0,0,0,85.34,20.544c0,1.952.791,4.494,2.351,7.561A67.053,67.053,0,0,0,92.735,36.232Z" transform="translate(-77.702 -5.246)"/><path class="a" d="M178.3,83.612a.764.764,0,1,0,0-1.527,7.637,7.637,0,1,0,5.4,2.237.764.764,0,1,0-1.08,1.08,6.11,6.11,0,1,1-4.32-1.789Z" transform="translate(-155.386 -75.208)"/><path class="a" d="M45.536,373.284l-4.7-8.4a2.374,2.374,0,0,0-2.078-1.2H33.318a.764.764,0,0,0,0,1.527h5.443a.847.847,0,0,1,.746.417l4.7,8.4a.687.687,0,0,1-.007.706.84.84,0,0,1-.739.4H2.368a.84.84,0,0,1-.739-.4.687.687,0,0,1-.007-.706l4.7-8.4a.846.846,0,0,1,.745-.417h5.443a.764.764,0,1,0,0-1.527H7.063a2.375,2.375,0,0,0-2.08,1.2l-4.7,8.4a2.215,2.215,0,0,0,.024,2.223,2.352,2.352,0,0,0,2.057,1.159H43.456a2.352,2.352,0,0,0,2.056-1.159A2.215,2.215,0,0,0,45.536,373.284Z" transform="translate(0 -331.604)"/><path class="a" d="M355.979,406.351h-3.055a.768.768,0,0,0-.424.128l-2.291,1.528a.764.764,0,1,0,.848,1.271l2.1-1.4h2.826a.764.764,0,0,0,0-1.528Z" transform="translate(-318.556 -370.453)"/><path class="a" d="M366.937,458.315a.764.764,0,0,0,.764.764h6.11a.764.764,0,1,0,0-1.527H367.7A.764.764,0,0,0,366.937,458.315Z" transform="translate(-334.097 -417.071)"/><path class="a" d="M91.447,409.4a.764.764,0,0,0,.425-1.4l-2.291-1.527a.768.768,0,0,0-.425-.128H86.1a.764.764,0,0,0,0,1.527h2.826l2.1,1.4A.763.763,0,0,0,91.447,409.4Z" transform="translate(-77.7 -370.452)"/><path class="a" d="M60.5,457.551a.764.764,0,0,0,0,1.527h6.11a.764.764,0,0,0,0-1.527Z" transform="translate(-54.391 -417.07)"/></g></g></svg>