<svg xmlns="http://www.w3.org/2000/svg" width="32.158" height="45.736" viewBox="0 0 32.158 45.736"><defs><style>.a{fill:rgba(0,0,0,0.3);}</style></defs><g transform="translate(-76)"><g transform="translate(76)"><path class="a" d="M92.079,0A16.082,16.082,0,0,0,78.4,24.534L91.164,45.1a1.34,1.34,0,0,0,1.138.633h.011a1.34,1.34,0,0,0,1.139-.651L105.89,24.317A16.083,16.083,0,0,0,92.079,0Zm11.511,22.941L92.282,41.822l-11.6-18.7a13.408,13.408,0,1,1,22.913-.181Z" transform="translate(-76)"/></g><g transform="translate(84.04 8.04)"><path class="a" d="M174.04,90a8.04,8.04,0,1,0,8.04,8.04A8.049,8.049,0,0,0,174.04,90Zm0,13.417a5.378,5.378,0,1,1,5.369-5.378A5.382,5.382,0,0,1,174.04,103.417Z" transform="translate(-166 -90)"/></g></g></svg>