<svg xmlns="http://www.w3.org/2000/svg" width="111.2" height="100.958" viewBox="0 0 111.2 173.958"><defs><style>.a{fill:#fff;}</style></defs><g transform="translate(0 -0.008)"><path class="a" d="M353.616,191.642h10.125c8.667-.046,15.062-6.184,15.139-14.516s-6.405-14.753-15.165-14.8c-9.188-.057-18.375.036-27.563-.031A28.929,28.929,0,0,1,307.812,137.6a9.989,9.989,0,0,1,0-1.237,21.882,21.882,0,0,1,2.2-.211c18.035,0,36.07-.175,54.106.036,24.147.283,42.218,19.581,40.96,43.444-.8,15.258-12.042,30.469-26.311,35.493a2.878,2.878,0,0,1-2.463-.33c-7.472-7.343-14.851-14.773-22.245-22.188C353.869,192.451,353.838,192.184,353.616,191.642Z" transform="translate(-306.637 -136.08)"/><path class="a" d="M415.4,318.185q-35.911-36.07-71.873-72.043a5.23,5.23,0,0,0-3.334-1.345c-10.991-.1-21.982-.062-32.979-.052-.515,0-1.082.046-1.664.093l25.919,25.919h.593v.608l49.283,49.252a27.12,27.12,0,0,0,11.97,5.2,28.471,28.471,0,0,0,23.435-6.142C416.193,319.072,415.817,318.608,415.4,318.185Z" transform="translate(-305.55 -188.74)"/><path class="a" d="M332.162,452.245l-4.483-6.446a8.34,8.34,0,0,1-.85.031h-4.973v6.41H317.77v-22h9.054a12.186,12.186,0,0,1,4.983.943,7.245,7.245,0,0,1,3.251,2.705,7.565,7.565,0,0,1,1.134,4.179,7.457,7.457,0,0,1-1.211,4.277,7.214,7.214,0,0,1-3.473,2.669l5.06,7.214Zm-1.479-17.412a6.309,6.309,0,0,0-4.035-1.113h-4.792v8.76h4.792a6.217,6.217,0,0,0,4.055-1.149,3.988,3.988,0,0,0,1.381-3.251,3.942,3.942,0,0,0-1.4-3.252Z" transform="translate(-311.473 -278.655)"/><path class="a" d="M378.869,448.826v3.427H362.38v-22h16.062v3.427H366.456v5.72h10.62v3.365h-10.62v6.065Z" transform="translate(-333.096 -278.663)"/><path class="a" d="M423.469,452.253l-.031-14.583-7.214,12.068H414.4l-7.214-11.883v14.4h-3.9v-22h3.365l8.76,14.583,8.58-14.583h3.365l.031,22Z" transform="translate(-352.925 -278.663)"/><path class="a" d="M461.48,430.25h4.086v22H461.48Z" transform="translate(-381.131 -278.663)"/><path class="a" d="M481.1,451.565a10.254,10.254,0,0,1-3.756-1.917l1.417-3.174a11.131,11.131,0,0,0,3.318,1.747,12.048,12.048,0,0,0,3.947.675,6.805,6.805,0,0,0,3.664-.788,2.381,2.381,0,0,0,1.211-2.061,2.01,2.01,0,0,0-.675-1.546,4.757,4.757,0,0,0-1.711-.958q-1.031-.345-2.829-.783a32.956,32.956,0,0,1-4.071-1.2,6.7,6.7,0,0,1-2.669-1.871,5.034,5.034,0,0,1-1.118-3.442,5.87,5.87,0,0,1,.989-3.318,6.7,6.7,0,0,1,2.984-2.375,12.094,12.094,0,0,1,4.89-.881,15.8,15.8,0,0,1,3.963.515,10.96,10.96,0,0,1,3.365,1.448l-1.288,3.174a12.754,12.754,0,0,0-3.02-1.288,11.294,11.294,0,0,0-3.05-.438,6.393,6.393,0,0,0-3.607.819,2.52,2.52,0,0,0-1.18,2.169,1.958,1.958,0,0,0,.675,1.546,4.866,4.866,0,0,0,1.711.943q1.031.345,2.829.788a29.8,29.8,0,0,1,4.024,1.18,6.9,6.9,0,0,1,2.69,1.871,4.932,4.932,0,0,1,1.118,3.4,5.8,5.8,0,0,1-.989,3.3,6.735,6.735,0,0,1-3,2.36,12.223,12.223,0,0,1-4.906.881A16.794,16.794,0,0,1,481.1,451.565Z" transform="translate(-388.818 -278.382)"/></g></svg>