<svg xmlns="http://www.w3.org/2000/svg" width="57.826" height="47.327" viewBox="0 0 57.826 47.327"><defs><style>.a{fill:#c0cfee;}</style></defs><path class="a" d="M21.573,47.327a49.619,49.619,0,0,1-7.664-.608A35.967,35.967,0,0,1,3.426,42.9L0,41.03l3.709-1.22c4.055-1.333,6.521-2.16,9.575-3.456a12.738,12.738,0,0,1-6.548-7.587l-.863-2.62.708.108A12.868,12.868,0,0,1,4.97,24.269,12.2,12.2,0,0,1,2.9,17.016l.162-2.287,1.369.53a12.8,12.8,0,0,1-1.24-3.476A13.228,13.228,0,0,1,4.6,2.879L5.793.689,7.388,2.605A29.352,29.352,0,0,0,26.4,13.311a11.373,11.373,0,0,1,.69-6.042A11.313,11.313,0,0,1,31.692,2,13.815,13.815,0,0,1,39.71.026a12.806,12.806,0,0,1,7.872,3.247,26.424,26.424,0,0,0,2.881-.962c.632-.238,1.348-.508,2.245-.817l3.3-1.138L53.857,6.509c.142-.012.289-.022.442-.029l3.528-.16L55.741,9.17c-.12.163-.15.21-.192.274-.168.253-.377.568-3.239,4.39a5.391,5.391,0,0,0-1.008,3.51A33.2,33.2,0,0,1,49.49,30.7a23.63,23.63,0,0,1-6.343,9.4,28.017,28.017,0,0,1-13.28,6.42,40.882,40.882,0,0,1-8.294.814Zm0,0" transform="translate(0 0)"/></svg>