<svg xmlns="http://www.w3.org/2000/svg" width="43.164" height="51.736" viewBox="0 0 43.164 51.736"><defs><style>.a{fill:rgba(0,0,0,0.3);}</style></defs><g transform="translate(0 0)"><path class="a" d="M99.493,24.922a12.058,12.058,0,0,0,8.811-3.651,12.058,12.058,0,0,0,3.65-8.81A12.059,12.059,0,0,0,108.3,3.65a12.458,12.458,0,0,0-17.621,0,12.057,12.057,0,0,0-3.651,8.81,12.058,12.058,0,0,0,3.651,8.811A12.061,12.061,0,0,0,99.493,24.922ZM92.826,5.794a9.426,9.426,0,0,1,13.333,0,9.009,9.009,0,0,1,2.763,6.666,9.008,9.008,0,0,1-2.763,6.667,9.425,9.425,0,0,1-13.333,0,9.007,9.007,0,0,1-2.763-6.667,9.008,9.008,0,0,1,2.763-6.666Zm0,0" transform="translate(-78.238)"/><path class="a" d="M43.059,262.108a30.778,30.778,0,0,0-.419-3.269,25.757,25.757,0,0,0-.8-3.287,16.237,16.237,0,0,0-1.352-3.065,11.555,11.555,0,0,0-2.037-2.655,8.983,8.983,0,0,0-2.927-1.839,10.115,10.115,0,0,0-3.736-.676,3.792,3.792,0,0,0-2.025.859c-.607.4-1.317.854-2.11,1.36a12.09,12.09,0,0,1-2.73,1.2,10.6,10.6,0,0,1-6.678,0,12.053,12.053,0,0,1-2.728-1.2c-.785-.5-1.5-.96-2.112-1.361a3.788,3.788,0,0,0-2.024-.859,10.1,10.1,0,0,0-3.736.677,8.976,8.976,0,0,0-2.927,1.839,11.558,11.558,0,0,0-2.037,2.655,16.266,16.266,0,0,0-1.351,3.066,25.817,25.817,0,0,0-.8,3.286,30.568,30.568,0,0,0-.419,3.27c-.069.988-.1,2.016-.1,3.055a8.591,8.591,0,0,0,2.551,6.5,9.184,9.184,0,0,0,6.575,2.4H34.037a9.185,9.185,0,0,0,6.574-2.4,8.588,8.588,0,0,0,2.552-6.5c0-1.042-.036-2.071-.1-3.056Zm-4.538,7.359a6.184,6.184,0,0,1-4.484,1.563H9.126a6.184,6.184,0,0,1-4.484-1.562,5.61,5.61,0,0,1-1.61-4.3c0-.969.032-1.927.1-2.845a27.571,27.571,0,0,1,.379-2.944,22.771,22.771,0,0,1,.707-2.9,13.242,13.242,0,0,1,1.1-2.493,8.567,8.567,0,0,1,1.5-1.962,5.959,5.959,0,0,1,1.947-1.211,6.976,6.976,0,0,1,2.388-.461c.106.056.3.164.6.364.623.406,1.342.87,2.136,1.377a15.021,15.021,0,0,0,3.427,1.531,13.629,13.629,0,0,0,8.543,0,15.038,15.038,0,0,0,3.428-1.532c.813-.519,1.511-.969,2.134-1.376.306-.2.5-.307.6-.364a6.981,6.981,0,0,1,2.388.461,5.968,5.968,0,0,1,1.947,1.211,8.543,8.543,0,0,1,1.5,1.963,13.2,13.2,0,0,1,1.1,2.492,22.718,22.718,0,0,1,.707,2.9,27.8,27.8,0,0,1,.379,2.945h0c.064.915.1,1.872.1,2.844a5.609,5.609,0,0,1-1.61,4.3Zm0,0" transform="translate(0 -222.326)"/></g></svg>